<svg width="658" height="658" viewBox="0 0 658 658" fill="none" xmlns="http://www.w3.org/2000/svg">
<path d="M644.502 85.4109H13.4979C6.04303 85.4109 0 91.4553 0 98.9088V559.091C0 566.545 6.04303 572.589 13.4979 572.589H644.502C651.956 572.589 658 566.545 658 559.091V98.9088C658 91.4553 651.957 85.4109 644.502 85.4109ZM631.004 112.407V429.927L490.601 321.849C486.061 318.351 479.808 318.106 475.004 321.232L382.816 381.238L200.938 256.494C196.63 253.54 191.001 253.336 186.487 255.976L26.9959 349.296V112.407H631.004V112.407ZM26.9959 545.593V380.572L192.732 283.601L374.986 408.603C379.49 411.688 385.411 411.761 389.984 408.784L481.714 349.075L631.004 463.994V545.593H26.9959V545.593Z" fill="#575757"/>
<path d="M378.897 294.634C414.076 294.634 442.696 266.016 442.696 230.838C442.696 195.665 414.076 167.049 378.897 167.049C343.718 167.049 315.1 195.665 315.1 230.838C315.1 266.016 343.718 294.634 378.897 294.634ZM378.897 194.046C399.189 194.046 415.7 210.552 415.7 230.839C415.7 251.13 399.191 267.64 378.897 267.64C358.605 267.64 342.096 251.132 342.096 230.839C342.096 210.55 358.605 194.046 378.897 194.046Z" fill="#575757"/>
</svg>
